<svg width="20" height="20" viewBox="0 0 20 20" fill="none" xmlns="http://www.w3.org/2000/svg">
<path d="M18 9.46394C18 11.1876 17.6741 12.6918 17.0222 13.9765C16.3704 15.2611 15.4444 16.2531 14.2444 16.9523C13.0296 17.6515 11.6222 18.0012 10.0222 18.0012C8.42222 18.0012 7.01482 17.6515 5.8 16.9523C4.58519 16.2531 3.65185 15.2611 3 13.9765C2.33333 12.6756 2 11.1714 2 9.46394C2 8.08173 2.21481 6.79708 2.64444 5.61C3.07407 4.40666 3.66667 3.48789 4.42222 2.8537C4.57037 2.70735 4.74815 2.63417 4.95556 2.63417C5.19259 2.63417 5.37778 2.748 5.51111 2.97566C5.6 3.12201 5.64444 3.28463 5.64444 3.4635C5.64444 3.60985 5.61482 3.7562 5.55556 3.90256C5.48148 4.04891 5.39259 4.17087 5.28889 4.26844C4.71111 4.77254 4.25926 5.47178 3.93333 6.36615C3.59259 7.26053 3.42222 8.29313 3.42222 9.46394C3.42222 10.8299 3.68889 12.017 4.22222 13.0252C4.75556 14.0334 5.51852 14.8058 6.51111 15.3424C7.5037 15.8791 8.67407 16.1474 10.0222 16.1474C12.0667 16.1474 13.6741 15.5538 14.8444 14.3667C16 13.1797 16.5778 11.5454 16.5778 9.46394C16.5778 8.37443 16.4222 7.40688 16.1111 6.56129C15.7852 5.7157 15.3407 5.05711 14.7778 4.58553C14.2 4.09769 13.5481 3.85377 12.8222 3.85377L12.0667 3.85377C11.6667 3.85377 11.3778 3.94321 11.2 4.12209C11.0222 4.2847 10.9333 4.60179 10.9333 5.07337L10.9333 8.78097C10.9333 9.3989 10.7111 9.70786 10.2667 9.70786C9.79259 9.70786 9.55556 9.3989 9.55556 8.78097L9.55556 4.75628C9.55556 3.82938 9.74074 3.13827 10.1111 2.68295C10.4815 2.22764 11.0519 1.99998 11.8222 1.99998L12.6667 1.99998C13.6593 1.99998 14.563 2.3252 15.3778 2.97566C16.1926 3.62611 16.837 4.52049 17.3111 5.65878C17.7704 6.79708 18 8.06547 18 9.46394Z" fill="white" stroke="white" stroke-width="3"/>
</svg>
